{"asset":{"version":"2.0","generator":"VECTARY"},"scene":0,"extensionsUsed":["KHR_texture_transform","KHR_lights_punctual"],"extensionsRequired":["KHR_lights_punctual"],"nodes":[{"translation":[0,0,0],"scale":[0.001,0.001,0.001],"rotation":[0,0,0,1],"name":"Bacardi_3m","children":[1,2,3,4,5,6,7,8,9,10,11,12,13,14]},{"translation":[0,0,0],"scale":[1,1,1],"rotation":[0,0,0,1],"name":"Cylinder003","mesh":0},{"translation":[0,0,0],"scale":[1,1,1],"rotation":[0,0,0,1],"name":"Shape003","mesh":1},{"translation":[0,0,0],"scale":[1,1,1],"rotation":[0,0,0,1],"name":"Shape002","mesh":2},{"translation":[0,0,0],"scale":[1,1,1],"rotation":[0,0,0,1],"name":"Object004","mesh":3},{"translation":[0,0,0],"scale":[1,1,1],"rotation":[0,0,0,1],"name":"Plane006","mesh":4},{"translation":[0,0,0],"scale":[1,1,1],"rotation":[0,0,0,1],"name":"Box001","mesh":5},{"translation":[0,0,0],"scale":[1,1,1],"rotation":[0,0,0,1],"name":"Object003","mesh":6},{"translation":[0,0,0],"scale":[1,1,1],"rotation":[0,0,0,1],"name":"Cylinder002","mesh":7},{"translation":[0,0,0],"scale":[1,1,1],"rotation":[0,0,0,1],"name":"Object001","mesh":8},{"translation":[0,0,0],"scale":[1,1,1],"rotation":[0,0,0,1],"name":"Cylinder001","mesh":9},{"translation":[0,0,0],"scale":[1,1,1],"rotation":[0,0,0,1],"name":"Shape004","mesh":10},{"translation":[0,0,0],"scale":[1,1,1],"rotation":[0,0,0,1],"name":"Object002","mesh":11},{"translation":[0,0,0],"scale":[1,1,1],"rotation":[0,0,0,1],"name":"Shape001","mesh":12},{"translation":[0,0,0],"scale":[1,1,1],"rotation":[0,0,0,1],"name":"Line001","mesh":13},{"translation":[-0.1416531669744056,0.11266757604709174,0.2740619419153204],"scale":[1,1,1],"rotation":[-0.16500682394620952,-0.20681553604932842,-0.03541086627009565,0.9637147672676885],"name":"Camera","camera":0}],"materials":[{"pbrMetallicRoughness":{"baseColorFactor":[1,1,1,1],"baseColorTexture":{"index":0,"extensions":{"KHR_texture_transform":{"offset":[0,0],"scale":[1,1],"rotation":0}},"texCoord":0},"metallicFactor":0,"roughnessFactor":0.2},"name":"Cylinder003 material","emissiveFactor":[0,0,0],"alphaMode":"OPAQUE","doubleSided":false},{"pbrMetallicRoughness":{"baseColorFactor":[1,1,1,1],"baseColorTexture":{"index":0,"extensions":{"KHR_texture_transform":{"offset":[0,0],"scale":[1,1],"rotation":0}},"texCoord":0},"metallicFactor":0,"roughnessFactor":0.2},"name":"Shape003 material","emissiveFactor":[0,0,0],"alphaMode":"OPAQUE","doubleSided":false},{"pbrMetallicRoughness":{"baseColorFactor":[1,1,1,1],"baseColorTexture":{"index":0,"extensions":{"KHR_texture_transform":{"offset":[0,0],"scale":[1,1],"rotation":0}},"texCoord":0},"metallicFactor":0,"roughnessFactor":0.2},"name":"Shape002 material","emissiveFactor":[0,0,0],"alphaMode":"OPAQUE","doubleSided":false},{"pbrMetallicRoughness":{"baseColorFactor":[1,1,1,1],"baseColorTexture":{"index":0,"extensions":{"KHR_texture_transform":{"offset":[0,0],"scale":[1,1],"rotation":0}},"texCoord":0},"metallicFactor":0,"roughnessFactor":0.2},"name":"Object004 material","emissiveFactor":[0,0,0],"alphaMode":"OPAQUE","doubleSided":false},{"pbrMetallicRoughness":{"baseColorFactor":[1,1,1,1],"baseColorTexture":{"index":0,"extensions":{"KHR_texture_transform":{"offset":[0,0],"scale":[1,1],"rotation":0}},"texCoord":0},"metallicFactor":0,"roughnessFactor":0.2},"name":"Plane006 material","emissiveFactor":[0,0,0],"alphaMode":"OPAQUE","doubleSided":false},{"pbrMetallicRoughness":{"baseColorFactor":[1,1,1,1],"baseColorTexture":{"index":0,"extensions":{"KHR_texture_transform":{"offset":[0,0],"scale":[1,1],"rotation":0}},"texCoord":0},"metallicFactor":0,"roughnessFactor":0.2},"name":"Box001 material","emissiveFactor":[0,0,0],"alphaMode":"OPAQUE","doubleSided":false},{"pbrMetallicRoughness":{"baseColorFactor":[1,1,1,1],"baseColorTexture":{"index":0,"extensions":{"KHR_texture_transform":{"offset":[0,0],"scale":[1,1],"rotation":0}},"texCoord":0},"metallicFactor":0,"roughnessFactor":0.2},"name":"Object003 material","emissiveFactor":[0,0,0],"alphaMode":"OPAQUE","doubleSided":false},{"pbrMetallicRoughness":{"baseColorFactor":[1,1,1,1],"baseColorTexture":{"index":0,"extensions":{"KHR_texture_transform":{"offset":[0,0],"scale":[1,1],"rotation":0}},"texCoord":0},"metallicFactor":0,"roughnessFactor":0.2},"name":"Cylinder002 material","emissiveFactor":[0,0,0],"alphaMode":"OPAQUE","doubleSided":false},{"pbrMetallicRoughness":{"baseColorFactor":[1,1,1,1],"baseColorTexture":{"index":1,"extensions":{"KHR_texture_transform":{"offset":[0,0],"scale":[1,1],"rotation":0}},"texCoord":0},"metallicFactor":0,"roughnessFactor":0.2},"name":"Object001 material","emissiveFactor":[0,0,0],"alphaMode":"OPAQUE","doubleSided":false},{"pbrMetallicRoughness":{"baseColorFactor":[1,1,1,1],"baseColorTexture":{"index":0,"extensions":{"KHR_texture_transform":{"offset":[0,0],"scale":[1,1],"rotation":0}},"texCoord":0},"metallicFactor":0,"roughnessFactor":0.2},"name":"Cylinder001 material","emissiveFactor":[0,0,0],"alphaMode":"OPAQUE","doubleSided":false},{"pbrMetallicRoughness":{"baseColorFactor":[1,1,1,1],"baseColorTexture":{"index":1,"extensions":{"KHR_texture_transform":{"offset":[0,0],"scale":[1,1],"rotation":0}},"texCoord":0},"metallicFactor":0,"roughnessFactor":0.2},"name":"Shape004 material","emissiveFactor":[0,0,0],"alphaMode":"OPAQUE","doubleSided":false},{"pbrMetallicRoughness":{"baseColorFactor":[1,1,1,1],"baseColorTexture":{"index":0,"extensions":{"KHR_texture_transform":{"offset":[0,0],"scale":[1,1],"rotation":0}},"texCoord":0},"metallicFactor":0,"roughnessFactor":0.2},"name":"Object002 material","emissiveFactor":[0,0,0],"alphaMode":"OPAQUE","doubleSided":false},{"pbrMetallicRoughness":{"baseColorFactor":[1,1,1,1],"baseColorTexture":{"index":0,"extensions":{"KHR_texture_transform":{"offset":[0,0],"scale":[1,1],"rotation":0}},"texCoord":0},"metallicFactor":0,"roughnessFactor":0.2},"name":"Shape001 material","emissiveFactor":[0,0,0],"alphaMode":"OPAQUE","doubleSided":false},{"pbrMetallicRoughness":{"baseColorFactor":[1,1,1,1],"baseColorTexture":{"index":1,"extensions":{"KHR_texture_transform":{"offset":[0,0],"scale":[1,1],"rotation":0}},"texCoord":0},"metallicFactor":0,"roughnessFactor":0.2},"name":"Line001 material","emissiveFactor":[0,0,0],"alphaMode":"OPAQUE","doubleSided":false}],"textures":[{"sampler":0,"source":0},{"sampler":0,"source":1}],"images":[{"uri":"a269fa45-79f2-4a80-b832-6ee6e543ee58.jpg","mimeType":"image/jpeg"},{"uri":"5aaf9c83-ae8d-46f3-9457-0b982c4e86a4.jpg","mimeType":"image/jpeg"}],"samplers":[{"wrapS":10497,"wrapT":10497}],"meshes":[{"primitives":[{"mode":4,"attributes":{"POSITION":1,"NORMAL":2,"TEXCOORD_0":3},"material":0,"indices":0}]},{"primitives":[{"mode":4,"attributes":{"POSITION":5,"NORMAL":6,"TEXCOORD_0":7},"material":1,"indices":4}]},{"primitives":[{"mode":4,"attributes":{"POSITION":9,"NORMAL":10,"TEXCOORD_0":11},"material":2,"indices":8}]},{"primitives":[{"mode":4,"attributes":{"POSITION":13,"NORMAL":14,"TEXCOORD_0":15},"material":3,"indices":12}]},{"primitives":[{"mode":4,"attributes":{"POSITION":17,"NORMAL":18,"TEXCOORD_0":19},"material":4,"indices":16}]},{"primitives":[{"mode":4,"attributes":{"POSITION":21,"NORMAL":22,"TEXCOORD_0":23},"material":5,"indices":20}]},{"primitives":[{"mode":4,"attributes":{"POSITION":25,"NORMAL":26,"TEXCOORD_0":27},"material":6,"indices":24}]},{"primitives":[{"mode":4,"attributes":{"POSITION":29,"NORMAL":30,"TEXCOORD_0":31},"material":7,"indices":28}]},{"primitives":[{"mode":4,"attributes":{"POSITION":33,"NORMAL":34,"TEXCOORD_0":35},"material":8,"indices":32}]},{"primitives":[{"mode":4,"attributes":{"POSITION":37,"NORMAL":38,"TEXCOORD_0":39},"material":9,"indices":36}]},{"primitives":[{"mode":4,"attributes":{"POSITION":41,"NORMAL":42,"TEXCOORD_0":43},"material":10,"indices":40}]},{"primitives":[{"mode":4,"attributes":{"POSITION":45,"NORMAL":46,"TEXCOORD_0":47},"material":11,"indices":44}]},{"primitives":[{"mode":4,"attributes":{"POSITION":49,"NORMAL":50,"TEXCOORD_0":51},"material":12,"indices":48}]},{"primitives":[{"mode":4,"attributes":{"POSITION":53,"NORMAL":54,"TEXCOORD_0":55},"material":13,"indices":52}]}],"accessors":[{"bufferView":0,"byteOffset":0,"componentType":5125,"count":1008,"type":"SCALAR"},{"bufferView":1,"byteOffset":0,"componentType":5126,"count":1008,"max":[85.27230072021484,5,-20.652700424194336],"min":[-83.02529907226562,0,-28.03890037536621],"type":"VEC3"},{"bufferView":2,"byteOffset":0,"componentType":5126,"count":1008,"type":"VEC3"},{"bufferView":3,"byteOffset":0,"componentType":5126,"count":1008,"type":"VEC2"},{"bufferView":4,"byteOffset":0,"componentType":5125,"count":1728,"type":"SCALAR"},{"bufferView":5,"byteOffset":0,"componentType":5126,"count":1728,"max":[87.7051010131836,6.558700084686279,47.307899475097656],"min":[-85.45809936523438,4.612599849700928,44.18190002441406],"type":"VEC3"},{"bufferView":6,"byteOffset":0,"componentType":5126,"count":1728,"type":"VEC3"},{"bufferView":7,"byteOffset":0,"componentType":5126,"count":1728,"type":"VEC2"},{"bufferView":8,"byteOffset":0,"componentType":5125,"count":1440,"type":"SCALAR"},{"bufferView":9,"byteOffset":0,"componentType":5126,"count":1440,"max":[87.9885025024414,6.293000221252441,48.12419891357422],"min":[-85.74140167236328,3.546299934387207,41.3661994934082],"type":"VEC3"},{"bufferView":10,"byteOffset":0,"componentType":5126,"count":1440,"type":"VEC3"},{"bufferView":11,"byteOffset":0,"componentType":5126,"count":1440,"type":"VEC2"},{"bufferView":12,"byteOffset":0,"componentType":5125,"count":18192,"type":"SCALAR"},{"bufferView":13,"byteOffset":0,"componentType":5126,"count":18192,"max":[79.98149871826172,97.13790130615234,-3.6940999031066895],"min":[-77.7344970703125,38.63949966430664,-39.944400787353516],"type":"VEC3"},{"bufferView":14,"byteOffset":0,"componentType":5126,"count":18192,"type":"VEC3"},{"bufferView":15,"byteOffset":0,"componentType":5126,"count":18192,"type":"VEC2"},{"bufferView":16,"byteOffset":0,"componentType":5125,"count":8832,"type":"SCALAR"},{"bufferView":17,"byteOffset":0,"componentType":5126,"count":8832,"max":[25.33340072631836,96.64189910888672,-3.688499927520752],"min":[-22.498300552368164,38.63949966430664,-40.818599700927734],"type":"VEC3"},{"bufferView":18,"byteOffset":0,"componentType":5126,"count":8832,"type":"VEC3"},{"bufferView":19,"byteOffset":0,"componentType":5126,"count":8832,"type":"VEC2"},{"bufferView":20,"byteOffset":0,"componentType":5125,"count":10584,"type":"SCALAR"},{"bufferView":21,"byteOffset":0,"componentType":5126,"count":10584,"max":[26.581100463867188,47.989898681640625,51.95349884033203],"min":[-24.210899353027344,25.21150016784668,-6.730100154876709],"type":"VEC3"},{"bufferView":22,"byteOffset":0,"componentType":5126,"count":10584,"type":"VEC3"},{"bufferView":23,"byteOffset":0,"componentType":5126,"count":10584,"type":"VEC2"},{"bufferView":24,"byteOffset":0,"componentType":5125,"count":21168,"type":"SCALAR"},{"bufferView":25,"byteOffset":0,"componentType":5126,"count":21168,"max":[78.08529663085938,48.17770004272461,51.95349884033203],"min":[-75.83830261230469,25.21150016784668,-6.881999969482422],"type":"VEC3"},{"bufferView":26,"byteOffset":0,"componentType":5126,"count":21168,"type":"VEC3"},{"bufferView":27,"byteOffset":0,"componentType":5126,"count":21168,"type":"VEC2"},{"bufferView":28,"byteOffset":0,"componentType":5125,"count":1008,"type":"SCALAR"},{"bufferView":29,"byteOffset":0,"componentType":5126,"count":1008,"max":[85.29299926757812,5,46.930999755859375],"min":[-83.0459976196289,0,39.50389862060547],"type":"VEC3"},{"bufferView":30,"byteOffset":0,"componentType":5126,"count":1008,"type":"VEC3"},{"bufferView":31,"byteOffset":0,"componentType":5126,"count":1008,"type":"VEC2"},{"bufferView":32,"byteOffset":0,"componentType":5125,"count":4584,"type":"SCALAR"},{"bufferView":33,"byteOffset":0,"componentType":5126,"count":4584,"max":[95.82859802246094,51.509498596191406,48.166099548339844],"min":[-93.58159637451172,13.907299995422363,41.901798248291016],"type":"VEC3"},{"bufferView":34,"byteOffset":0,"componentType":5126,"count":4584,"type":"VEC3"},{"bufferView":35,"byteOffset":0,"componentType":5126,"count":4584,"type":"VEC2"},{"bufferView":36,"byteOffset":0,"componentType":5125,"count":43788,"type":"SCALAR"},{"bufferView":37,"byteOffset":0,"componentType":5126,"count":43788,"max":[100.98380279541016,61.00740051269531,47.48419952392578],"min":[-98.73680114746094,3.8290998935699463,-14.81350040435791],"type":"VEC3"},{"bufferView":38,"byteOffset":0,"componentType":5126,"count":43788,"type":"VEC3"},{"bufferView":39,"byteOffset":0,"componentType":5126,"count":43788,"type":"VEC2"},{"bufferView":40,"byteOffset":0,"componentType":5125,"count":6048,"type":"SCALAR"},{"bufferView":41,"byteOffset":0,"componentType":5126,"count":6048,"max":[96.12429809570312,51.59920120239258,47.647701263427734],"min":[-93.8772964477539,13.621899604797363,42.37310028076172],"type":"VEC3"},{"bufferView":42,"byteOffset":0,"componentType":5126,"count":6048,"type":"VEC3"},{"bufferView":43,"byteOffset":0,"componentType":5126,"count":6048,"type":"VEC2"},{"bufferView":44,"byteOffset":0,"componentType":5125,"count":5904,"type":"SCALAR"},{"bufferView":45,"byteOffset":0,"componentType":5126,"count":5904,"max":[95.88670349121094,89.26329803466797,-3.3506999015808105],"min":[-93.63970184326172,4.206299781799316,-37.91559982299805],"type":"VEC3"},{"bufferView":46,"byteOffset":0,"componentType":5126,"count":5904,"type":"VEC3"},{"bufferView":47,"byteOffset":0,"componentType":5126,"count":5904,"type":"VEC2"},{"bufferView":48,"byteOffset":0,"componentType":5125,"count":3120,"type":"SCALAR"},{"bufferView":49,"byteOffset":0,"componentType":5126,"count":3120,"max":[94.64929962158203,91.18560028076172,1.938599944114685],"min":[-92.40229797363281,42.42279815673828,-28.61039924621582],"type":"VEC3"},{"bufferView":50,"byteOffset":0,"componentType":5126,"count":3120,"type":"VEC3"},{"bufferView":51,"byteOffset":0,"componentType":5126,"count":3120,"type":"VEC2"},{"bufferView":52,"byteOffset":0,"componentType":5125,"count":1728,"type":"SCALAR"},{"bufferView":53,"byteOffset":0,"componentType":5126,"count":1728,"max":[97.49349975585938,92.89550018310547,-0.120899997651577],"min":[-95.24649810791016,50.84629821777344,-31.96500015258789],"type":"VEC3"},{"bufferView":54,"byteOffset":0,"componentType":5126,"count":1728,"type":"VEC3"},{"bufferView":55,"byteOffset":0,"componentType":5126,"count":1728,"type":"VEC2"}],"bufferViews":[{"buffer":0,"byteOffset":0,"byteLength":4032,"target":34963},{"buffer":0,"byteOffset":4032,"byteLength":12096,"target":34962},{"buffer":0,"byteOffset":16128,"byteLength":12096,"target":34962},{"buffer":0,"byteOffset":28224,"byteLength":8064,"target":34962},{"buffer":0,"byteOffset":36288,"byteLength":6912,"target":34963},{"buffer":0,"byteOffset":43200,"byteLength":20736,"target":34962},{"buffer":0,"byteOffset":63936,"byteLength":20736,"target":34962},{"buffer":0,"byteOffset":84672,"byteLength":13824,"target":34962},{"buffer":0,"byteOffset":98496,"byteLength":5760,"target":34963},{"buffer":0,"byteOffset":104256,"byteLength":17280,"target":34962},{"buffer":0,"byteOffset":121536,"byteLength":17280,"target":34962},{"buffer":0,"byteOffset":138816,"byteLength":11520,"target":34962},{"buffer":0,"byteOffset":150336,"byteLength":72768,"target":34963},{"buffer":0,"byteOffset":223104,"byteLength":218304,"target":34962},{"buffer":0,"byteOffset":441408,"byteLength":218304,"target":34962},{"buffer":0,"byteOffset":659712,"byteLength":145536,"target":34962},{"buffer":0,"byteOffset":805248,"byteLength":35328,"target":34963},{"buffer":0,"byteOffset":840576,"byteLength":105984,"target":34962},{"buffer":0,"byteOffset":946560,"byteLength":105984,"target":34962},{"buffer":0,"byteOffset":1052544,"byteLength":70656,"target":34962},{"buffer":0,"byteOffset":1123200,"byteLength":42336,"target":34963},{"buffer":0,"byteOffset":1165536,"byteLength":127008,"target":34962},{"buffer":0,"byteOffset":1292544,"byteLength":127008,"target":34962},{"buffer":0,"byteOffset":1419552,"byteLength":84672,"target":34962},{"buffer":0,"byteOffset":1504224,"byteLength":84672,"target":34963},{"buffer":0,"byteOffset":1588896,"byteLength":254016,"target":34962},{"buffer":0,"byteOffset":1842912,"byteLength":254016,"target":34962},{"buffer":0,"byteOffset":2096928,"byteLength":169344,"target":34962},{"buffer":0,"byteOffset":2266272,"byteLength":4032,"target":34963},{"buffer":0,"byteOffset":2270304,"byteLength":12096,"target":34962},{"buffer":0,"byteOffset":2282400,"byteLength":12096,"target":34962},{"buffer":0,"byteOffset":2294496,"byteLength":8064,"target":34962},{"buffer":0,"byteOffset":2302560,"byteLength":18336,"target":34963},{"buffer":0,"byteOffset":2320896,"byteLength":55008,"target":34962},{"buffer":0,"byteOffset":2375904,"byteLength":55008,"target":34962},{"buffer":0,"byteOffset":2430912,"byteLength":36672,"target":34962},{"buffer":0,"byteOffset":2467584,"byteLength":175152,"target":34963},{"buffer":0,"byteOffset":2642736,"byteLength":525456,"target":34962},{"buffer":0,"byteOffset":3168192,"byteLength":525456,"target":34962},{"buffer":0,"byteOffset":3693648,"byteLength":350304,"target":34962},{"buffer":0,"byteOffset":4043952,"byteLength":24192,"target":34963},{"buffer":0,"byteOffset":4068144,"byteLength":72576,"target":34962},{"buffer":0,"byteOffset":4140720,"byteLength":72576,"target":34962},{"buffer":0,"byteOffset":4213296,"byteLength":48384,"target":34962},{"buffer":0,"byteOffset":4261680,"byteLength":23616,"target":34963},{"buffer":0,"byteOffset":4285296,"byteLength":70848,"target":34962},{"buffer":0,"byteOffset":4356144,"byteLength":70848,"target":34962},{"buffer":0,"byteOffset":4426992,"byteLength":47232,"target":34962},{"buffer":0,"byteOffset":4474224,"byteLength":12480,"target":34963},{"buffer":0,"byteOffset":4486704,"byteLength":37440,"target":34962},{"buffer":0,"byteOffset":4524144,"byteLength":37440,"target":34962},{"buffer":0,"byteOffset":4561584,"byteLength":24960,"target":34962},{"buffer":0,"byteOffset":4586544,"byteLength":6912,"target":34963},{"buffer":0,"byteOffset":4593456,"byteLength":20736,"target":34962},{"buffer":0,"byteOffset":4614192,"byteLength":20736,"target":34962},{"buffer":0,"byteOffset":4634928,"byteLength":13824,"target":34962}],"cameras":[{"name":"Camera","type":"perspective","extras":{"targetDistance":0.3307899383340639},"perspective":{"aspectRatio":1.568,"yfov":0.6108652381980153,"zfar":32.533270983792804,"znear":0.002286309390441893}}],"scenes":[{"nodes":[0,15],"name":"Project Name"}],"buffers":[{"byteLength":4648752,"uri":"ProjectName.bin"}]}